<svg width="18" height="18" viewBox="0 0 18 18" fill="none" xmlns="http://www.w3.org/2000/svg">
<path d="M15.067 4.65047C15.0974 4.40279 15.1134 4.15062 15.1134 3.89471C15.1134 1.74375 13.3697 0 11.2187 0H4.70976C4.30033 0 3.95077 0.295664 3.88285 0.699398L1.48449 14.9544C1.39843 15.4659 1.79274 15.932 2.3114 15.932H4.69186C5.10129 15.932 5.45743 15.6366 5.52531 15.2328C5.52531 15.2328 5.52929 15.2092 5.53646 15.1665H5.53649L5.20476 17.1383C5.12896 17.5891 5.47648 18 5.93362 18H8.01617C8.37705 18 8.68516 17.7394 8.74499 17.3835L9.33664 13.8672C9.43863 13.261 9.9634 12.8172 10.578 12.8172H11.1251C14.0969 12.8172 16.5059 10.4081 16.5059 7.43639C16.5059 6.28646 15.9375 5.26999 15.067 4.65047Z" fill="#002987"/>
<path d="M15.064 4.64941C14.6916 7.67914 12.1093 10.0252 8.97895 10.0252H7.1626C6.75264 10.0252 6.39858 10.2982 6.28753 10.6843L5.20183 17.1372C5.126 17.588 5.47352 17.9989 5.93065 17.9989H8.01321C8.37409 17.9989 8.68219 17.7383 8.74203 17.3825L9.33367 13.8662C9.43566 13.26 9.96044 12.8161 10.5751 12.8161H11.1222C14.0939 12.8161 16.503 10.4071 16.503 7.43534C16.503 6.28541 15.9346 5.26894 15.064 4.64941Z" fill="#0085CC"/>
<path d="M7.17198 10.0253H8.98833C12.1188 10.0253 14.701 7.67931 15.0734 4.64962C14.5148 4.25214 13.8322 4.01758 13.0944 4.01758H8.35362C7.81387 4.01758 7.353 4.40736 7.26343 4.93962L6.29688 10.6844C6.40793 10.2983 6.76203 10.0253 7.17198 10.0253Z" fill="#00186A"/>
</svg>
