<svg width="18" height="18" viewBox="0 0 18 18" fill="none" xmlns="http://www.w3.org/2000/svg">
<path d="M16.055 18H1.945C0.870823 18 0 17.1292 0 16.055V1.945C0 0.870823 0.870823 0 1.945 0H16.055C17.1292 0 18 0.870823 18 1.945V16.055C18 17.1292 17.1292 18 16.055 18Z" fill="#635BFF"/>
<path fill-rule="evenodd" clip-rule="evenodd" d="M15.9035 9.10084C15.9035 8.122 15.4293 7.34961 14.5231 7.34961C13.6131 7.34961 13.0625 8.122 13.0625 9.09322C13.0625 10.2441 13.7125 10.8253 14.6455 10.8253C15.1005 10.8253 15.4446 10.7221 15.7046 10.5768V9.81207C15.4446 9.94206 15.1464 10.0224 14.7678 10.0224C14.3969 10.0224 14.0681 9.89234 14.0261 9.44118H15.8958C15.8958 9.39146 15.9035 9.19263 15.9035 9.10084ZM14.0146 8.73761C14.0146 8.30555 14.2784 8.12583 14.5193 8.12583C14.7526 8.12583 15.0011 8.30555 15.0011 8.73761H14.0146Z" fill="white"/>
<path fill-rule="evenodd" clip-rule="evenodd" d="M11.5856 7.34961C11.2109 7.34961 10.97 7.52547 10.8362 7.64784L10.7865 7.41078H9.94531V11.8692L10.9012 11.6665L10.905 10.5844C11.0427 10.6838 11.2453 10.8253 11.5818 10.8253C12.2663 10.8253 12.8895 10.2747 12.8895 9.0626C12.8857 7.95373 12.2548 7.34961 11.5856 7.34961ZM11.3562 9.9841C11.1307 9.9841 10.9968 9.90379 10.905 9.80437L10.9012 8.38579C11.0006 8.27493 11.1383 8.19845 11.3562 8.19845C11.7042 8.19845 11.9451 8.58847 11.9451 9.08936C11.9451 9.60172 11.708 9.9841 11.3562 9.9841Z" fill="white"/>
<path fill-rule="evenodd" clip-rule="evenodd" d="M8.62891 7.12329L9.58864 6.91681V6.14062L8.62891 6.34327V7.12329Z" fill="white"/>
<path fill-rule="evenodd" clip-rule="evenodd" d="M8.62891 7.41406H9.58864V10.7598H8.62891V7.41406Z" fill="white"/>
<path fill-rule="evenodd" clip-rule="evenodd" d="M7.60193 7.69747L7.54075 7.41451H6.71484V10.7602H7.67075V8.49279C7.89633 8.19835 8.2787 8.2519 8.39725 8.29397V7.41451C8.27487 7.36865 7.82751 7.28451 7.60193 7.69747Z" fill="white"/>
<path fill-rule="evenodd" clip-rule="evenodd" d="M5.69071 6.58398L4.75773 6.78281L4.75391 9.84556C4.75391 10.4115 5.17834 10.8283 5.74423 10.8283C6.05777 10.8283 6.28721 10.7709 6.41338 10.7021V9.92587C6.29104 9.97555 5.68688 10.1514 5.68688 9.58556V8.22815H6.41338V7.41372H5.68688L5.69071 6.58398Z" fill="white"/>
<path fill-rule="evenodd" clip-rule="evenodd" d="M3.10411 8.38485C3.10411 8.23571 3.22645 8.17837 3.42913 8.17837C3.71971 8.17837 4.08677 8.2663 4.37739 8.42309V7.52452C4.06001 7.39836 3.74647 7.34863 3.42913 7.34863C2.65291 7.34863 2.13672 7.75393 2.13672 8.43074C2.13672 9.48606 3.58972 9.31782 3.58972 9.77285C3.58972 9.94874 3.43675 10.0061 3.22266 10.0061C2.90529 10.0061 2.49999 9.87609 2.17879 9.70019V10.6102C2.5344 10.7632 2.8938 10.8282 3.22266 10.8282C4.01795 10.8282 4.56476 10.4343 4.56476 9.74988C4.56093 8.61043 3.10411 8.81311 3.10411 8.38485Z" fill="white"/>
</svg>
