<svg width="65" height="22" viewBox="0 0 65 22" fill="none" xmlns="http://www.w3.org/2000/svg">
<g clip-path="url(#clip0_3442_3923)">
<g clip-path="url(#clip1_3442_3923)">
<path d="M14.4597 7.08484C14.4872 6.86193 14.5015 6.63497 14.5015 6.40466C14.5015 4.46879 12.9322 2.89941 10.9963 2.89941H5.13825C4.76976 2.89941 4.45516 3.16551 4.39403 3.52887L2.2355 16.3584C2.15805 16.8187 2.51293 17.2382 2.97972 17.2382H5.12214C5.49063 17.2382 5.81115 16.9723 5.87225 16.6089C5.87225 16.6089 5.87582 16.5877 5.88228 16.5493H5.88231L5.58375 18.3239C5.51553 18.7296 5.8283 19.0994 6.23972 19.0994H8.11402C8.43881 19.0994 8.7161 18.8649 8.76996 18.5446L9.30244 15.3799C9.39423 14.8344 9.86653 14.4349 10.4197 14.4349H10.9121C13.5867 14.4349 15.7548 12.2667 15.7548 9.59216C15.7548 8.55723 15.2432 7.64241 14.4597 7.08484Z" fill="#002987"/>
<path d="M14.4571 7.08398C14.1219 9.81074 11.7979 11.9222 8.98056 11.9222H7.34585C6.97689 11.9222 6.65824 12.1679 6.55829 12.5154L5.58116 18.323C5.51291 18.7287 5.82568 19.0986 6.2371 19.0986H8.1114C8.43619 19.0986 8.71349 18.864 8.76734 18.5437L9.29982 15.379C9.39161 14.8335 9.86391 14.434 10.4171 14.434H10.9095C13.5841 14.434 15.7522 12.2659 15.7522 9.59131C15.7522 8.55638 15.2406 7.64156 14.4571 7.08398Z" fill="#0085CC"/>
<path d="M7.35425 11.9221H8.98896C11.8063 11.9221 14.1303 9.8107 14.4655 7.08397C13.9628 6.72624 13.3485 6.51514 12.6845 6.51514H8.41772C7.93194 6.51514 7.51717 6.86594 7.43655 7.34498L6.56665 12.5153C6.6666 12.1678 6.98529 11.9221 7.35425 11.9221Z" fill="#00186A"/>
</g>
</g>
<path d="M23.302 16.5V6.728H27.194C28.0713 6.728 28.7433 6.98 29.21 7.484C29.686 7.97867 29.924 8.66 29.924 9.528C29.924 10.396 29.686 11.082 29.21 11.586C28.7433 12.0807 28.0713 12.328 27.194 12.328H24.478V16.5H23.302ZM24.478 11.292H27.194C27.6607 11.292 28.02 11.1707 28.272 10.928C28.5333 10.6853 28.664 10.34 28.664 9.892V9.164C28.664 8.716 28.5333 8.37067 28.272 8.128C28.02 7.88533 27.6607 7.764 27.194 7.764H24.478V11.292ZM36.7935 16.5C36.3735 16.5 36.0702 16.388 35.8835 16.164C35.7062 15.94 35.5942 15.66 35.5475 15.324H35.4775C35.3188 15.772 35.0575 16.108 34.6935 16.332C34.3295 16.556 33.8955 16.668 33.3915 16.668C32.6262 16.668 32.0288 16.472 31.5995 16.08C31.1795 15.688 30.9695 15.156 30.9695 14.484C30.9695 13.8027 31.2168 13.28 31.7115 12.916C32.2155 12.552 32.9948 12.37 34.0495 12.37H35.4775V11.656C35.4775 11.1427 35.3375 10.7507 35.0575 10.48C34.7775 10.2093 34.3482 10.074 33.7695 10.074C33.3308 10.074 32.9622 10.172 32.6635 10.368C32.3742 10.564 32.1315 10.8253 31.9355 11.152L31.2635 10.522C31.4595 10.13 31.7722 9.79867 32.2015 9.528C32.6308 9.248 33.1722 9.108 33.8255 9.108C34.7028 9.108 35.3842 9.32267 35.8695 9.752C36.3548 10.1813 36.5975 10.7787 36.5975 11.544V15.52H37.4235V16.5H36.7935ZM33.5735 15.716C33.8535 15.716 34.1102 15.6833 34.3435 15.618C34.5768 15.5527 34.7775 15.4593 34.9455 15.338C35.1135 15.2167 35.2442 15.0767 35.3375 14.918C35.4308 14.7593 35.4775 14.5867 35.4775 14.4V13.21H33.9935C33.3495 13.21 32.8782 13.3033 32.5795 13.49C32.2902 13.6767 32.1455 13.9473 32.1455 14.302V14.596C32.1455 14.9507 32.2715 15.226 32.5235 15.422C32.7848 15.618 33.1348 15.716 33.5735 15.716ZM43.4057 9.276H44.5117L41.2777 18.18C41.1937 18.3947 41.1097 18.572 41.0257 18.712C40.9417 18.8613 40.839 18.978 40.7177 19.062C40.5963 19.146 40.4423 19.2067 40.2557 19.244C40.0783 19.2813 39.859 19.3 39.5977 19.3H39.0237V18.32H40.1577L40.7037 16.78L38.0017 9.276H39.1217L40.8577 14.19L41.1937 15.366H41.2637L41.6557 14.19L43.4057 9.276ZM45.94 9.276H47.06V10.452H47.116C47.3027 9.99467 47.5733 9.65867 47.928 9.444C48.292 9.22 48.726 9.108 49.23 9.108C49.678 9.108 50.084 9.19667 50.448 9.374C50.812 9.55133 51.12 9.80333 51.372 10.13C51.6333 10.4567 51.8293 10.8533 51.96 11.32C52.1 11.7867 52.17 12.3093 52.17 12.888C52.17 13.4667 52.1 13.9893 51.96 14.456C51.8293 14.9227 51.6333 15.3193 51.372 15.646C51.12 15.9727 50.812 16.2247 50.448 16.402C50.084 16.5793 49.678 16.668 49.23 16.668C48.25 16.668 47.5453 16.22 47.116 15.324H47.06V19.3H45.94V9.276ZM48.922 15.66C49.5567 15.66 50.056 15.464 50.42 15.072C50.784 14.6707 50.966 14.148 50.966 13.504V12.272C50.966 11.628 50.784 11.11 50.42 10.718C50.056 10.3167 49.5567 10.116 48.922 10.116C48.67 10.116 48.4273 10.1533 48.194 10.228C47.97 10.2933 47.774 10.3867 47.606 10.508C47.438 10.6293 47.3027 10.7787 47.2 10.956C47.1067 11.124 47.06 11.306 47.06 11.502V14.19C47.06 14.4233 47.1067 14.6333 47.2 14.82C47.3027 14.9973 47.438 15.1513 47.606 15.282C47.774 15.4033 47.97 15.4967 48.194 15.562C48.4273 15.6273 48.67 15.66 48.922 15.66ZM59.3111 16.5C58.8911 16.5 58.5878 16.388 58.4011 16.164C58.2238 15.94 58.1118 15.66 58.0651 15.324H57.9951C57.8364 15.772 57.5751 16.108 57.2111 16.332C56.8471 16.556 56.4131 16.668 55.9091 16.668C55.1438 16.668 54.5464 16.472 54.1171 16.08C53.6971 15.688 53.4871 15.156 53.4871 14.484C53.4871 13.8027 53.7344 13.28 54.2291 12.916C54.7331 12.552 55.5124 12.37 56.5671 12.37H57.9951V11.656C57.9951 11.1427 57.8551 10.7507 57.5751 10.48C57.2951 10.2093 56.8658 10.074 56.2871 10.074C55.8484 10.074 55.4798 10.172 55.1811 10.368C54.8918 10.564 54.6491 10.8253 54.4531 11.152L53.7811 10.522C53.9771 10.13 54.2898 9.79867 54.7191 9.528C55.1484 9.248 55.6898 9.108 56.3431 9.108C57.2204 9.108 57.9018 9.32267 58.3871 9.752C58.8724 10.1813 59.1151 10.7787 59.1151 11.544V15.52H59.9411V16.5H59.3111ZM56.0911 15.716C56.3711 15.716 56.6278 15.6833 56.8611 15.618C57.0944 15.5527 57.2951 15.4593 57.4631 15.338C57.6311 15.2167 57.7618 15.0767 57.8551 14.918C57.9484 14.7593 57.9951 14.5867 57.9951 14.4V13.21H56.5111C55.8671 13.21 55.3958 13.3033 55.0971 13.49C54.8078 13.6767 54.6631 13.9473 54.6631 14.302V14.596C54.6631 14.9507 54.7891 15.226 55.0411 15.422C55.3024 15.618 55.6524 15.716 56.0911 15.716ZM62.7296 16.5C62.3376 16.5 62.0389 16.3927 61.8336 16.178C61.6376 15.954 61.5396 15.674 61.5396 15.338V6.14H62.6596V15.52H63.7236V16.5H62.7296Z" fill="#6A758C"/>
<defs>
<clipPath id="clip0_3442_3923">
<rect y="2" width="18" height="18" rx="2.57143" fill="white"/>
</clipPath>
<clipPath id="clip1_3442_3923">
<rect width="16.2" height="16.2" fill="white" transform="translate(0.899902 2.8999)"/>
</clipPath>
</defs>
</svg>
