<svg width="20" height="20" viewBox="0 0 20 20" fill="none" xmlns="http://www.w3.org/2000/svg">
    <g clip-path="url(#clip0_2941_5735)">
        <path d="M14.1667 14.1667H15.8333C16.2754 14.1667 16.6993 13.9911 17.0118 13.6785C17.3244 13.366 17.5 12.942 17.5 12.5V9.16667C17.5 8.72464 17.3244 8.30072 17.0118 7.98816C16.6993 7.6756 16.2754 7.5 15.8333 7.5H4.16667C3.72464 7.5 3.30072 7.6756 2.98816 7.98816C2.67559 8.30072 2.5 8.72464 2.5 9.16667V12.5C2.5 12.942 2.67559 13.366 2.98816 13.6785C3.30072 13.9911 3.72464 14.1667 4.16667 14.1667H5.83333" stroke="#6B59EE" stroke-width="1.3" stroke-linecap="round" stroke-linejoin="round"/>
        <path d="M14.1666 7.5V4.16667C14.1666 3.72464 13.991 3.30072 13.6784 2.98816C13.3659 2.67559 12.9419 2.5 12.4999 2.5H7.49992C7.05789 2.5 6.63397 2.67559 6.32141 2.98816C6.00885 3.30072 5.83325 3.72464 5.83325 4.16667V7.5" stroke="#6B59EE" stroke-width="1.3" stroke-linecap="round" stroke-linejoin="round"/>
        <path d="M5.83325 12.4997C5.83325 12.0576 6.00885 11.6337 6.32141 11.3212C6.63397 11.0086 7.05789 10.833 7.49992 10.833H12.4999C12.9419 10.833 13.3659 11.0086 13.6784 11.3212C13.991 11.6337 14.1666 12.0576 14.1666 12.4997V15.833C14.1666 16.275 13.991 16.699 13.6784 17.0115C13.3659 17.3241 12.9419 17.4997 12.4999 17.4997H7.49992C7.05789 17.4997 6.63397 17.3241 6.32141 17.0115C6.00885 16.699 5.83325 16.275 5.83325 15.833V12.4997Z" stroke="#6B59EE" stroke-width="1.3" stroke-linecap="round" stroke-linejoin="round"/>
    </g>
    <defs>
        <clipPath id="clip0_2941_5735">
            <rect width="20" height="20" fill="white"/>
        </clipPath>
    </defs>
</svg>