<svg width="65" height="22" viewBox="0 0 65 22" fill="none" xmlns="http://www.w3.org/2000/svg">
<g clip-path="url(#clip0_3367_4975)">
<path d="M15.3492 19.0994H2.65016C1.6834 19.0994 0.899658 18.3157 0.899658 17.3489V4.64991C0.899658 3.68315 1.6834 2.89941 2.65016 2.89941H15.3492C16.3159 2.89941 17.0997 3.68315 17.0997 4.64991V17.3489C17.0997 18.3157 16.3159 19.0994 15.3492 19.0994Z" fill="#635BFF"/>
<path fill-rule="evenodd" clip-rule="evenodd" d="M15.2126 11.0898C15.2126 10.2088 14.7859 9.51367 13.9703 9.51367C13.1513 9.51367 12.6558 10.2088 12.6558 11.0829C12.6558 12.1187 13.2408 12.6418 14.0805 12.6418C14.4899 12.6418 14.7997 12.5489 15.0337 12.4181V11.7299C14.7997 11.8469 14.5313 11.9192 14.1906 11.9192C13.8568 11.9192 13.5608 11.8021 13.523 11.3961H15.2057C15.2057 11.3513 15.2126 11.1724 15.2126 11.0898ZM13.5126 10.7629C13.5126 10.374 13.7501 10.2123 13.9669 10.2123C14.1768 10.2123 14.4005 10.374 14.4005 10.7629H13.5126Z" fill="white"/>
<path fill-rule="evenodd" clip-rule="evenodd" d="M11.3266 9.51367C10.9894 9.51367 10.7726 9.67194 10.6522 9.78208L10.6074 9.56873H9.85034V13.5813L10.7107 13.3989L10.7141 12.425C10.838 12.5145 11.0204 12.6418 11.3232 12.6418C11.9392 12.6418 12.5001 12.1463 12.5001 11.0554C12.4967 10.0574 11.9289 9.51367 11.3266 9.51367ZM11.1202 11.8847C10.9172 11.8847 10.7967 11.8124 10.7141 11.723L10.7107 10.4462C10.8001 10.3465 10.924 10.2776 11.1202 10.2776C11.4333 10.2776 11.6501 10.6287 11.6501 11.0794C11.6501 11.5406 11.4368 11.8847 11.1202 11.8847Z" fill="white"/>
<path fill-rule="evenodd" clip-rule="evenodd" d="M8.66553 9.31018L9.52929 9.12435V8.42578L8.66553 8.60817V9.31018Z" fill="white"/>
<path fill-rule="evenodd" clip-rule="evenodd" d="M8.66553 9.57178H9.52929V12.5829H8.66553V9.57178Z" fill="white"/>
<path fill-rule="evenodd" clip-rule="evenodd" d="M7.74124 9.82684L7.68619 9.57218H6.94287V12.5833H7.80319V10.5426C8.00621 10.2776 8.35034 10.3258 8.45704 10.3637V9.57218C8.3469 9.53091 7.94427 9.45518 7.74124 9.82684Z" fill="white"/>
<path fill-rule="evenodd" clip-rule="evenodd" d="M6.0211 8.82471L5.18142 9.00365L5.17798 11.7601C5.17798 12.2694 5.55997 12.6446 6.06927 12.6446C6.35146 12.6446 6.55796 12.5929 6.67151 12.531V11.8324C6.5614 11.8771 6.01766 12.0354 6.01766 11.5261V10.3045H6.67151V9.57147H6.01766L6.0211 8.82471Z" fill="white"/>
<path fill-rule="evenodd" clip-rule="evenodd" d="M3.69316 10.4453C3.69316 10.3111 3.80327 10.2595 3.98568 10.2595C4.2472 10.2595 4.57756 10.3386 4.83911 10.4797V9.671C4.55348 9.55745 4.27129 9.5127 3.98568 9.5127C3.28708 9.5127 2.82251 9.87747 2.82251 10.4866C2.82251 11.4364 4.13021 11.285 4.13021 11.6945C4.13021 11.8528 3.99254 11.9044 3.79985 11.9044C3.51422 11.9044 3.14945 11.7874 2.86037 11.6291V12.4481C3.18042 12.5858 3.50389 12.6443 3.79985 12.6443C4.51562 12.6443 5.00775 12.2898 5.00775 11.6738C5.0043 10.6483 3.69316 10.8307 3.69316 10.4453Z" fill="white"/>
</g>
<path d="M26.046 16.668C25.2527 16.668 24.576 16.5187 24.016 16.22C23.456 15.912 22.98 15.492 22.588 14.96L23.456 14.232C23.8013 14.6893 24.184 15.0393 24.604 15.282C25.024 15.5153 25.5187 15.632 26.088 15.632C26.788 15.632 27.32 15.464 27.684 15.128C28.0573 14.792 28.244 14.344 28.244 13.784C28.244 13.3173 28.104 12.958 27.824 12.706C27.544 12.454 27.082 12.2533 26.438 12.104L25.64 11.922C24.744 11.7167 24.058 11.4087 23.582 10.998C23.1153 10.578 22.882 9.99 22.882 9.234C22.882 8.80467 22.9613 8.422 23.12 8.086C23.2787 7.75 23.498 7.47 23.778 7.246C24.0673 7.022 24.408 6.854 24.8 6.742C25.2013 6.62067 25.64 6.56 26.116 6.56C26.8533 6.56 27.4833 6.69533 28.006 6.966C28.538 7.23667 28.986 7.63333 29.35 8.156L28.468 8.8C28.1973 8.42667 27.8707 8.13267 27.488 7.918C27.1053 7.70333 26.6293 7.596 26.06 7.596C25.4347 7.596 24.94 7.73133 24.576 8.002C24.2213 8.26333 24.044 8.66 24.044 9.192C24.044 9.65867 24.1933 10.0133 24.492 10.256C24.8 10.4893 25.262 10.676 25.878 10.816L26.676 10.998C27.6373 11.2127 28.3327 11.5393 28.762 11.978C29.1913 12.4167 29.406 13 29.406 13.728C29.406 14.176 29.3267 14.582 29.168 14.946C29.0187 15.31 28.7993 15.618 28.51 15.87C28.2207 16.122 27.866 16.318 27.446 16.458C27.0353 16.598 26.5687 16.668 26.046 16.668ZM32.9208 16.5C32.5288 16.5 32.2301 16.3927 32.0248 16.178C31.8288 15.954 31.7308 15.6647 31.7308 15.31V10.256H30.5408V9.276H31.2128C31.4554 9.276 31.6188 9.22933 31.7028 9.136C31.7961 9.03333 31.8428 8.86067 31.8428 8.618V7.274H32.8508V9.276H34.4328V10.256H32.8508V15.52H34.3208V16.5H32.9208ZM36.233 16.5V9.276H37.353V10.606H37.423C37.5536 10.2607 37.787 9.95267 38.123 9.682C38.459 9.41133 38.921 9.276 39.509 9.276H39.943V10.396H39.285C38.6783 10.396 38.2023 10.5127 37.857 10.746C37.521 10.97 37.353 11.2547 37.353 11.6V16.5H36.233ZM41.9336 7.582C41.6909 7.582 41.5136 7.526 41.4016 7.414C41.2989 7.29267 41.2476 7.13867 41.2476 6.952V6.77C41.2476 6.58333 41.2989 6.434 41.4016 6.322C41.5136 6.20067 41.6909 6.14 41.9336 6.14C42.1763 6.14 42.3489 6.20067 42.4516 6.322C42.5636 6.434 42.6196 6.58333 42.6196 6.77V6.952C42.6196 7.13867 42.5636 7.29267 42.4516 7.414C42.3489 7.526 42.1763 7.582 41.9336 7.582ZM41.3736 9.276H42.4936V16.5H41.3736V9.276ZM44.8736 9.276H45.9936V10.452H46.0496C46.2363 9.99467 46.5069 9.65867 46.8616 9.444C47.2256 9.22 47.6596 9.108 48.1636 9.108C48.6116 9.108 49.0176 9.19667 49.3816 9.374C49.7456 9.55133 50.0536 9.80333 50.3056 10.13C50.5669 10.4567 50.7629 10.8533 50.8936 11.32C51.0336 11.7867 51.1036 12.3093 51.1036 12.888C51.1036 13.4667 51.0336 13.9893 50.8936 14.456C50.7629 14.9227 50.5669 15.3193 50.3056 15.646C50.0536 15.9727 49.7456 16.2247 49.3816 16.402C49.0176 16.5793 48.6116 16.668 48.1636 16.668C47.1836 16.668 46.4789 16.22 46.0496 15.324H45.9936V19.3H44.8736V9.276ZM47.8556 15.66C48.4903 15.66 48.9896 15.464 49.3536 15.072C49.7176 14.6707 49.8996 14.148 49.8996 13.504V12.272C49.8996 11.628 49.7176 11.11 49.3536 10.718C48.9896 10.3167 48.4903 10.116 47.8556 10.116C47.6036 10.116 47.3609 10.1533 47.1276 10.228C46.9036 10.2933 46.7076 10.3867 46.5396 10.508C46.3716 10.6293 46.2363 10.7787 46.1336 10.956C46.0403 11.124 45.9936 11.306 45.9936 11.502V14.19C45.9936 14.4233 46.0403 14.6333 46.1336 14.82C46.2363 14.9973 46.3716 15.1513 46.5396 15.282C46.7076 15.4033 46.9036 15.4967 47.1276 15.562C47.3609 15.6273 47.6036 15.66 47.8556 15.66ZM55.7107 16.668C55.216 16.668 54.768 16.5793 54.3667 16.402C53.9747 16.2247 53.634 15.9727 53.3447 15.646C53.0647 15.31 52.8454 14.9133 52.6867 14.456C52.5374 13.9893 52.4627 13.4667 52.4627 12.888C52.4627 12.3187 52.5374 11.8007 52.6867 11.334C52.8454 10.8673 53.0647 10.4707 53.3447 10.144C53.634 9.808 53.9747 9.55133 54.3667 9.374C54.768 9.19667 55.216 9.108 55.7107 9.108C56.196 9.108 56.63 9.19667 57.0127 9.374C57.3954 9.55133 57.722 9.79867 57.9927 10.116C58.2634 10.424 58.4687 10.7927 58.6087 11.222C58.758 11.6513 58.8327 12.1227 58.8327 12.636V13.168H53.6387V13.504C53.6387 13.812 53.6854 14.1013 53.7787 14.372C53.8814 14.6333 54.0214 14.862 54.1987 15.058C54.3854 15.254 54.6094 15.408 54.8707 15.52C55.1414 15.632 55.4447 15.688 55.7807 15.688C56.238 15.688 56.6347 15.5807 56.9707 15.366C57.316 15.1513 57.582 14.8433 57.7687 14.442L58.5667 15.016C58.3334 15.5107 57.9694 15.912 57.4747 16.22C56.98 16.5187 56.392 16.668 55.7107 16.668ZM55.7107 10.046C55.4027 10.046 55.1227 10.102 54.8707 10.214C54.6187 10.3167 54.3994 10.466 54.2127 10.662C54.0354 10.858 53.8954 11.0913 53.7927 11.362C53.69 11.6233 53.6387 11.9127 53.6387 12.23V12.328H57.6287V12.174C57.6287 11.53 57.4514 11.0167 57.0967 10.634C56.7514 10.242 56.2894 10.046 55.7107 10.046Z" fill="#6A758C"/>
<defs>
<clipPath id="clip0_3367_4975">
<rect y="2" width="18" height="18" rx="2.57143" fill="white"/>
</clipPath>
</defs>
</svg>
