<svg width="18" height="18" viewBox="0 0 18 18" fill="none"
    xmlns="http://www.w3.org/2000/svg">
    <g clip-path="url(#clip0_2914_6421)">
        <path
            d="M12.2002 12.825C11.8821 12.825 11.6242 13.0829 11.6242 13.401C11.6242 13.7191 11.8821 13.977 12.2002 13.977V12.825ZM17.0002 13.401L17.4075 13.8083C17.5156 13.7002 17.5762 13.5537 17.5762 13.401C17.5762 13.2482 17.5156 13.1017 17.4075 12.9937L17.0002 13.401ZM14.993 14.5937C14.768 14.8186 14.768 15.1833 14.993 15.4083C15.2179 15.6332 15.5826 15.6332 15.8075 15.4083L14.993 14.5937ZM15.8075 11.3937C15.5826 11.1687 15.2179 11.1687 14.993 11.3937C14.768 11.6186 14.768 11.9833 14.993 12.2083L15.8075 11.3937ZM10.6002 16.377C10.9184 16.377 11.1762 16.1191 11.1762 15.801C11.1762 15.4829 10.9184 15.225 10.6002 15.225V16.377ZM16.4242 9.40098C16.4242 9.71909 16.6821 9.97698 17.0002 9.97698C17.3184 9.97698 17.5762 9.71909 17.5762 9.40098H16.4242ZM7.40024 13.177C7.71836 13.177 7.97624 12.9191 7.97624 12.601C7.97624 12.2829 7.71836 12.025 7.40024 12.025V13.177ZM4.20024 12.025C3.88213 12.025 3.62424 12.2829 3.62424 12.601C3.62424 12.9191 3.88213 13.177 4.20024 13.177V12.025ZM9.80024 13.177C10.1184 13.177 10.3762 12.9191 10.3762 12.601C10.3762 12.2829 10.1184 12.025 9.80024 12.025V13.177ZM9.40024 12.025C9.08213 12.025 8.82424 12.2829 8.82424 12.601C8.82424 12.9191 9.08213 13.177 9.40024 13.177V12.025ZM1.00024 7.22498C0.682128 7.22498 0.424244 7.48286 0.424244 7.80098C0.424244 8.11909 0.682128 8.37698 1.00024 8.37698V7.22498ZM17.0002 8.37698C17.3184 8.37698 17.5762 8.11909 17.5762 7.80098C17.5762 7.48286 17.3184 7.22498 17.0002 7.22498V8.37698ZM12.2002 13.977H17.0002V12.825H12.2002V13.977ZM16.593 12.9937L14.993 14.5937L15.8075 15.4083L17.4075 13.8083L16.593 12.9937ZM17.4075 12.9937L15.8075 11.3937L14.993 12.2083L16.593 13.8083L17.4075 12.9937ZM7.40024 3.57698H10.6002V2.42498H7.40024V3.57698ZM10.6002 15.225H7.40024V16.377H10.6002V15.225ZM7.40024 15.225C5.87547 15.225 4.78983 15.2238 3.96572 15.113C3.15819 15.0044 2.68857 14.8002 2.3448 14.4564L1.53021 15.271C2.1237 15.8645 2.87695 16.1289 3.81222 16.2547C4.73093 16.3782 5.90803 16.377 7.40024 16.377V15.225ZM0.424244 9.40098C0.424244 10.8932 0.423021 12.0703 0.546538 12.989C0.672282 13.9243 0.936721 14.6775 1.53021 15.271L2.3448 14.4564C2.00103 14.1127 1.79684 13.643 1.68827 12.8355C1.57747 12.0114 1.57624 10.9258 1.57624 9.40098H0.424244ZM10.6002 3.57698C12.125 3.57698 13.2107 3.5782 14.0348 3.689C14.8423 3.79757 15.3119 4.00176 15.6557 4.34553L16.4703 3.53094C15.8768 2.93745 15.1235 2.67301 14.1883 2.54727C13.2696 2.42375 12.0925 2.42498 10.6002 2.42498V3.57698ZM17.5762 9.40098C17.5762 7.90876 17.5775 6.73166 17.4539 5.81296C17.3282 4.87768 17.0638 4.12443 16.4703 3.53094L15.6557 4.34553C15.9995 4.6893 16.2037 5.15892 16.3122 5.96646C16.423 6.79056 16.4242 7.8762 16.4242 9.40098H17.5762ZM7.40024 2.42498C5.90803 2.42498 4.73093 2.42375 3.81222 2.54727C2.87695 2.67301 2.1237 2.93745 1.53021 3.53094L2.3448 4.34553C2.68857 4.00176 3.15819 3.79757 3.96572 3.689C4.78983 3.5782 5.87547 3.57698 7.40024 3.57698V2.42498ZM1.57624 9.40098C1.57624 7.8762 1.57747 6.79056 1.68827 5.96646C1.79684 5.15892 2.00103 4.6893 2.3448 4.34553L1.53021 3.53094C0.936721 4.12443 0.672282 4.87768 0.546538 5.81296C0.423021 6.73166 0.424244 7.90876 0.424244 9.40098H1.57624ZM7.40024 12.025H4.20024V13.177H7.40024V12.025ZM9.80024 12.025H9.40024V13.177H9.80024V12.025ZM1.00024 8.37698H17.0002V7.22498H1.00024V8.37698Z"
            fill="#8F9AB0" />
    </g>
    <defs>
        <clipPath id="clip0_2914_6421">
            <rect width="18" height="18" fill="white" />
        </clipPath>
    </defs>
</svg>